<?xml version="1.0" standalone="no"?>
<!DOCTYPE svg PUBLIC "-//W3C//DTD SVG 20010904//EN"
 "http://www.w3.org/TR/2001/REC-SVG-20010904/DTD/svg10.dtd">
<svg version="1.0" xmlns="http://www.w3.org/2000/svg"
 width="171.000000pt" height="171.000000pt" viewBox="0 0 171.000000 171.000000"
 preserveAspectRatio="xMidYMid meet">
<metadata>
Created by potrace 1.14, written by Peter Selinger 2001-2017
</metadata>
<g transform="translate(0.000000,171.000000) scale(0.100000,-0.100000)"
fill="#000000" stroke="none">
<path d="M485 1500 l-360 -209 0 -426 0 -426 362 -209 363 -210 112 65 c62 36
120 69 128 74 8 5 56 33 105 61 50 29 156 90 238 137 l147 86 0 423 0 422 -77
45 c-43 24 -94 53 -113 64 -19 11 -149 86 -288 167 -140 80 -254 146 -255 146
-1 -1 -164 -95 -362 -210z"/>
</g>
</svg>
